
<svg
  xmlns="http://www.w3.org/2000/svg"
  version="1.0"
  width="50px"
  height="50px"
  viewBox="0 0 500.000000 500.000000"
  preserveAspectRatio="xMidYMid meet"
>
  <g
    transform="translate(0.000000,500.000000) scale(0.100000,-0.100000)"
    
    stroke="none"
  >
    <path d="M860 4361 c-103 -32 -138 -77 -283 -361 -289 -570 -527 -1048 -542 -1095 -9 -27 -20 -84 -25 -125 -5 -41 -8 -502 -7 -1025 l2 -950 23 -48 c28 -55 82 -104 133 -117 24 -7 861 -9 2362 -8 l2325 3 43 30 c24 17 57 53 74 80 l30 48 2 956 c1 526 -2 990 -7 1031 -5 41 -16 98 -25 125 -14 44 -346 714 -582 1175 -88 171 -129 226 -198 263 l-40 22 -1630 2 c-896 1 -1641 -2 -1655 -6z m3260 -183 c27 -19 86 -129 351 -653 175 -346 319 -633 319 -637 0 -5 -1030 -8 -2290 -8 -1259 0 -2290 3 -2290 6 0 5 175 353 587 1167 40 79 64 114 87 128 30 18 74 19 1617 19 l1586 0 33 -22z m688 -1490 c7 -7 12 -25 12 -40 l0 -28 -2320 0 -2320 0 0 28 c0 15 5 33 12 40 17 17 4599 17 4616 0z m12 -933 l0 -695 -2320 0 -2320 0 0 695 0 695 2320 0 2320 0 0 -695z m0 -899 c0 -14 -7 -32 -16 -40 -14 -14 -237 -16 -2304 -16 -2067 0 -2290 2 -2304 16 -9 8 -16 26 -16 40 l0 24 2320 0 2320 0 0 -24z" />
    <path d="M1182 4065 c-41 -34 -44 -84 -7 -120 20 -20 34 -25 78 -25 66 0 97 26 97 82 0 53 -27 80 -86 85 -43 5 -54 2 -82 -22z" />
    <path d="M2010 4062 c-38 -38 -40 -79 -5 -116 20 -22 32 -26 77 -26 56 1 77 11 96 47 18 33 15 59 -11 89 -18 20 -35 28 -75 32 -47 4 -54 2 -82 -26z" />
    <path d="M2860 4077 c-53 -27 -62 -96 -18 -137 33 -31 121 -28 153 5 35 34 33 78 -4 116 -33 32 -86 39 -131 16z" />
    <path d="M3693 4080 c-47 -19 -59 -101 -20 -138 18 -17 36 -22 79 -22 49 0 59 3 77 26 21 26 28 79 13 100 -27 39 -97 55 -149 34z" />
    <path d="M1099 3791 c-37 -38 -39 -82 -4 -116 19 -20 34 -25 78 -25 59 0 92 21 103 65 21 86 -110 142 -177 76z" />
    <path d="M2005 3810 c-28 -11 -44 -31 -51 -67 -4 -23 0 -36 21 -61 24 -29 32 -32 81 -32 45 0 59 4 79 25 27 27 33 79 12 106 -27 36 -93 50 -142 29z" />
    <path d="M2885 3809 c-51 -31 -61 -94 -20 -134 20 -21 34 -25 79 -25 49 0 57 3 81 32 30 36 29 79 -4 112 -23 23 -107 32 -136 15z" />
    <path d="M3770 3807 c-53 -27 -62 -96 -18 -137 33 -31 121 -28 153 5 35 34 33 78 -4 116 -33 32 -86 39 -131 16z" />
    <path d="M1006 3499 c-21 -16 -26 -29 -26 -64 0 -58 32 -85 102 -85 41 0 54 5 79 29 38 38 38 74 0 112 -25 24 -38 29 -79 29 -35 0 -57 -6 -76 -21z" />
    <path d="M1949 3491 c-36 -36 -37 -70 -3 -110 23 -27 32 -31 78 -31 85 0 128 51 100 118 -25 60 -125 73 -175 23z" />
    <path d="M2913 3510 c-48 -19 -58 -95 -18 -135 20 -20 34 -25 77 -25 56 1 77 11 96 47 19 35 14 63 -17 94 -24 23 -38 29 -73 28 -24 0 -53 -4 -65 -9z" />
    <path d="M3844 3496 c-39 -33 -39 -89 0 -122 36 -32 111 -33 150 -3 21 16 26 29 26 64 0 35 -5 48 -26 64 -39 30 -114 29 -150 -3z" />
    <path d="M905 3205 c-31 -30 -33 -79 -5 -115 17 -22 26 -25 85 -25 59 0 68 3 85 25 28 36 26 85 -5 115 -20 21 -34 25 -80 25 -46 0 -60 -4 -80 -25z" />
    <path d="M1915 3205 c-48 -47 -25 -125 40 -141 43 -11 108 3 127 26 26 32 23 86 -7 115 -20 21 -34 25 -80 25 -46 0 -60 -4 -80 -25z" />
    <path d="M2925 3205 c-31 -30 -33 -83 -6 -116 17 -21 28 -24 86 -24 58 0 69 3 86 24 27 33 25 86 -6 116 -20 21 -34 25 -80 25 -46 0 -60 -4 -80 -25z" />
    <path d="M3935 3205 c-47 -46 -24 -125 41 -141 43 -11 107 3 126 26 26 32 23 86 -7 115 -20 21 -34 25 -80 25 -46 0 -60 -4 -80 -25z" />
    <path d="M739 2280 c-130 -21 -236 -71 -286 -136 -24 -32 -28 -47 -28 -98 0 -51 5 -67 27 -96 111 -146 484 -190 730 -87 57 24 126 93 138 138 32 116 -58 215 -240 265 -67 18 -265 26 -341 14z m251 -174 c78 -14 153 -44 153 -61 -1 -5 -27 -21 -59 -34 -47 -20 -82 -25 -175 -29 -124 -5 -193 5 -268 39 l-46 20 23 20 c61 49 233 70 372 45z" />
    <path d="M1855 2284 c-299 -41 -435 -203 -299 -354 133 -147 568 -168 761 -37 58 39 82 72 89 119 26 156 -136 263 -408 273 -62 2 -126 2 -143 -1z m260 -184 c63 -17 116 -42 112 -54 -2 -6 -30 -22 -63 -36 -54 -23 -71 -25 -209 -25 -132 1 -157 4 -207 24 -33 12 -58 29 -58 37 0 18 59 43 145 60 75 15 212 12 280 -6z" />
    <path d="M2909 2280 c-171 -27 -298 -106 -315 -196 -27 -145 106 -247 356 -272 215 -22 414 27 499 124 112 128 23 270 -205 330 -72 18 -258 26 -335 14z m251 -174 c78 -14 153 -44 153 -61 -1 -5 -27 -21 -59 -35 -54 -22 -72 -25 -209 -25 -138 0 -155 2 -209 25 -33 14 -61 30 -63 36 -6 18 88 52 187 67 53 9 128 6 200 -7z" />
    <path d="M3989 2279 c-70 -10 -157 -40 -215 -74 -96 -57 -129 -172 -71 -248 64 -84 172 -131 334 -146 221 -20 434 37 510 136 23 30 28 46 28 98 0 52 -4 67 -28 99 -85 111 -325 170 -558 135z m309 -183 c60 -16 105 -42 97 -56 -3 -5 -31 -19 -63 -32 -50 -20 -74 -23 -207 -23 -138 0 -155 2 -210 25 -33 14 -59 30 -59 35 2 17 75 47 149 61 81 16 214 11 293 -10z" />
    <path d="M450 1810 c-21 -16 -25 -27 -24 -73 0 -44 6 -62 27 -91 54 -70 168 -118 326 -136 219 -26 457 41 522 147 48 77 17 173 -56 173 -39 0 -64 -18 -84 -61 -13 -27 -29 -39 -76 -58 -80 -33 -278 -42 -374 -17 -69 18 -121 49 -121 72 0 8 -11 26 -25 39 -30 31 -79 33 -115 5z" />
    <path d="M1533 1808 c-11 -13 -23 -31 -27 -42 -11 -30 13 -95 50 -136 135 -149 565 -170 761 -37 63 43 85 76 91 136 4 45 2 52 -23 75 -49 46 -125 25 -141 -38 -12 -51 -127 -85 -284 -86 -156 0 -281 38 -288 88 -8 56 -101 82 -139 40z" />
    <path d="M2615 1804 c-24 -23 -27 -31 -23 -74 11 -116 137 -194 352 -220 165 -20 375 19 461 84 87 67 116 157 66 210 -43 46 -134 22 -143 -36 -7 -50 -132 -88 -288 -88 -157 1 -272 35 -284 86 -16 63 -92 84 -141 38z" />
    <path d="M3699 1804 c-33 -36 -32 -100 4 -152 113 -162 547 -200 773 -67 68 40 98 86 98 152 1 46 -3 57 -24 73 -35 27 -81 25 -114 -5 -14 -13 -26 -31 -26 -39 0 -47 -128 -86 -280 -86 -156 0 -281 38 -288 88 -9 58 -100 82 -143 36z" />
    <path d="M452 1510 c-63 -59 -28 -166 75 -227 187 -109 527 -106 704 8 61 39 92 88 93 146 1 37 -4 49 -27 69 -37 31 -81 31 -112 -1 -14 -13 -25 -31 -25 -39 0 -18 -38 -45 -90 -65 -48 -18 -273 -26 -341 -12 -71 16 -139 50 -139 71 0 10 -12 29 -26 44 -33 32 -81 35 -112 6z" />
    <path d="M1533 1506 c-23 -20 -28 -32 -27 -68 4 -207 450 -309 766 -174 117 50 176 176 112 240 -30 29 -77 34 -106 12 -10 -7 -24 -29 -33 -49 -12 -29 -25 -40 -72 -59 -52 -20 -74 -23 -218 -23 -158 0 -161 0 -220 30 -43 21 -61 36 -63 52 -4 30 -48 63 -83 63 -15 0 -41 -11 -56 -24z" />
    <path d="M2622 1510 c-45 -42 -41 -113 9 -173 126 -153 557 -181 766 -50 93 59 128 169 70 219 -15 13 -41 24 -56 24 -35 0 -79 -33 -83 -63 -2 -16 -20 -31 -63 -52 -59 -30 -62 -30 -220 -30 -144 0 -166 3 -218 23 -47 19 -60 30 -72 59 -9 20 -23 42 -33 49 -26 20 -75 17 -100 -6z" />
    <path d="M3703 1506 c-23 -20 -28 -32 -27 -69 2 -118 131 -201 353 -228 210 -25 439 34 515 134 62 81 34 186 -50 187 -34 0 -84 -41 -84 -69 0 -44 -131 -81 -285 -81 -162 0 -285 39 -285 90 0 25 -47 60 -81 60 -15 0 -41 -11 -56 -24z" />
  </g>
</svg>
